<svg viewBox="0 0 640 640" xmlns="http://www.w3.org/2000/svg" xmlns:xlink="http://www.w3.org/1999/xlink" overflow="hidden"><path d="M176 544C96.5 544 32 479.5 32 400 32 336.6 73 282.8 129.9 263.5 128.6 255.8 128 248 128 240 128 160.5 192.5 96 272 96 327.4 96 375.5 127.3 399.6 173.1 413.8 164.8 430.4 160 448 160 501 160 544 203 544 256 544 271.7 540.2 286.6 533.5 299.7 577.5 320 608 364.4 608 416 608 486.7 550.7 544 480 544L176 544ZM337 255C327.6 245.6 312.4 245.6 303.1 255L231.1 327C221.7 336.4 221.7 351.6 231.1 360.9 240.5 370.2 255.7 370.3 265 360.9L296 329.9 296 432C296 445.3 306.7 456 320 456 333.3 456 344 445.3 344 432L344 329.9 375 360.9C384.4 370.3 399.6 370.3 408.9 360.9 418.2 351.5 418.3 336.3 408.9 327L336.9 255Z" fill="#808080"/></svg>