<svg viewBox="0 0 640 640" xmlns="http://www.w3.org/2000/svg" xmlns:xlink="http://www.w3.org/1999/xlink" overflow="hidden"><path d="M463 448.2C440.9 409.8 399.4 384 352 384L288 384C240.6 384 199.1 409.8 177 448.2 212.2 487.4 263.2 512 320 512 376.8 512 427.8 487.3 463 448.2ZM64 320C64 178.6 178.6 64 320 64 461.4 64 576 178.6 576 320 576 461.4 461.4 576 320 576 178.6 576 64 461.4 64 320ZM320 336C359.8 336 392 303.8 392 264 392 224.2 359.8 192 320 192 280.2 192 248 224.2 248 264 248 303.8 280.2 336 320 336Z" fill="#FFFFFF"/></svg>